{
	"meshes":[{
		"name":"Extrude",
		"primitives":[{
			"attributes":{
				"POSITION":1,
				"NORMAL":2,
				"TEXCOORD_0":3
			},
			"indices":0
		}]
	}],
	"asset":{
		"version":"2.0",
		"generator":"Maxon Cinema 4D 2026.1.4 (#200000219)"
	},
	"scenes":[{
		"nodes":[0]
	}],
	"nodes":[{
		"name":"Extrude",
		"mesh":0
	}],
	"accessors":[{
		"bufferView":0,
		"type":"SCALAR",
		"componentType":5123,
		"count":13896,
		"byteOffset":0,
		"min":[0],
		"max":[13895]
	},
	{
		"bufferView":1,
		"type":"VEC3",
		"componentType":5126,
		"count":13896,
		"byteOffset":0,
		"min":[-0.011382333934307099,
		-0.010143633000552655,
		-0.006924749817699194],
		"max":[0.011382310651242733,
		0.010145029053092003,
		0.0003297500079497695]
	},
	{
		"bufferView":1,
		"type":"VEC3",
		"componentType":5126,
		"count":13896,
		"byteOffset":12,
		"min":[-1.0,
		-1.0,
		-1.0],
		"max":[1.0,
		1.0,
		1.0]
	},
	{
		"bufferView":1,
		"type":"VEC2",
		"componentType":5126,
		"count":13896,
		"byteOffset":24,
		"min":[0.0,
		0.0],
		"max":[1.0,
		1.0]
	}],
	"bufferViews":[{
		"buffer":0,
		"byteOffset":0,
		"byteLength":27792,
		"target":34963
	},
	{
		"buffer":0,
		"byteOffset":27792,
		"byteLength":444672,
		"target":34962,
		"byteStride":32
	}],
	"buffers":[{
		"uri":"data:application/octet-stream;base64,",
		"byteLength":472464
	}]
}