<?xml version="1.0" encoding="UTF-8"?>
<svg id="Layer_1" xmlns="http://www.w3.org/2000/svg" version="1.1" viewBox="0 0 137.33 65.33">
  <!-- Generator: Adobe Illustrator 29.8.5, SVG Export Plug-In . SVG Version: 2.1.1 Build 2)  -->
  <defs>
    <style>
      .st0 {
        fill: #fff;
      }
    </style>
  </defs>
  <path class="st0" d="M52,11.87h0s-17.92,0-17.92,0l9.02,7.78h8.83v28.05h-5.12l-23.13-21.23v11.1l20.11,17.92v-.02s.01.01.01.01h8.13c4.29,0,7.77-3.48,7.77-7.78v-28.05c0-4.27-3.44-7.73-7.7-7.77"/>
  <path class="st0" d="M18.47,55.46h0s17.92,0,17.92,0l-9.02-7.78h-8.83v-28.05h5.12l23.13,21.23v-11.1L26.69,11.87v.02s-.01-.01-.01-.01h-8.13c-4.29,0-7.77,3.48-7.77,7.78v28.05c0,4.27,3.44,7.73,7.7,7.77"/>
  <g>
    <polygon class="st0" points="92.06 47.69 85.28 47.69 75.26 30.09 75.26 47.69 68.44 47.69 68.44 19.41 75.26 19.41 85.26 37 85.26 19.41 92.06 19.41 92.06 47.69"/>
    <rect class="st0" x="96.83" y="19.41" width="6.8" height="28.28"/>
    <polygon class="st0" points="126.18 36.42 115.19 36.42 115.19 47.69 108.37 47.69 108.37 19.41 127.29 19.41 127.29 24.67 115.19 24.67 115.19 31.18 126.18 31.18 126.18 36.42"/>
  </g>
</svg>